<svg xmlns:svg="http://www.w3.org/2000/svg" xmlns="http://www.w3.org/2000/svg"
     xmlns:xlink="http://www.w3.org/1999/xlink" version="1.0" width="681" height="146"
     viewBox="0 0 681 146">
    <text x="60" y="8" font-family="Courier New, monospace" font-size="11"
          dominant-baseline="middle" text-anchor="middle">0
    </text>
    <text x="100" y="8" font-family="Courier New, monospace" font-size="11"
          dominant-baseline="middle" text-anchor="middle">1
    </text>
    <text x="140" y="8" font-family="Courier New, monospace" font-size="11"
          dominant-baseline="middle" text-anchor="middle">2
    </text>
    <text x="180" y="8" font-family="Courier New, monospace" font-size="11"
          dominant-baseline="middle" text-anchor="middle">3
    </text>
    <text x="220" y="8" font-family="Courier New, monospace" font-size="11"
          dominant-baseline="middle" text-anchor="middle">4
    </text>
    <text x="260" y="8" font-family="Courier New, monospace" font-size="11"
          dominant-baseline="middle" text-anchor="middle">5
    </text>
    <text x="300" y="8" font-family="Courier New, monospace" font-size="11"
          dominant-baseline="middle" text-anchor="middle">6
    </text>
    <text x="340" y="8" font-family="Courier New, monospace" font-size="11"
          dominant-baseline="middle" text-anchor="middle">7
    </text>
    <text x="380" y="8" font-family="Courier New, monospace" font-size="11"
          dominant-baseline="middle" text-anchor="middle">8
    </text>
    <text x="420" y="8" font-family="Courier New, monospace" font-size="11"
          dominant-baseline="middle" text-anchor="middle">9
    </text>
    <text x="460" y="8" font-family="Courier New, monospace" font-size="11"
          dominant-baseline="middle" text-anchor="middle">a
    </text>
    <text x="500" y="8" font-family="Courier New, monospace" font-size="11"
          dominant-baseline="middle" text-anchor="middle">b
    </text>
    <text x="540" y="8" font-family="Courier New, monospace" font-size="11"
          dominant-baseline="middle" text-anchor="middle">c
    </text>
    <text x="580" y="8" font-family="Courier New, monospace" font-size="11"
          dominant-baseline="middle" text-anchor="middle">d
    </text>
    <text x="620" y="8" font-family="Courier New, monospace" font-size="11"
          dominant-baseline="middle" text-anchor="middle">e
    </text>
    <text x="660" y="8" font-family="Courier New, monospace" font-size="11"
          dominant-baseline="middle" text-anchor="middle">f
    </text>
    <rect x="40" y="15" height="30" width="160" fill="#ffffa0"></rect>
    <line x1="40" y1="15" x2="200" y2="15" stroke="#000000" stroke-width="1"/>
    <line x1="40" y1="45" x2="200" y2="45" stroke="#000000" stroke-width="1"/>
    <line x1="200" y1="15" x2="200" y2="45" stroke="#000000" stroke-width="1"/>
    <line x1="40" y1="15" x2="40" y2="45" stroke="#000000" stroke-width="1"/>
    <text font-size="18" font-family="Courier New, monospace" x="120" y="31"
          text-anchor="middle" dominant-baseline="middle">PWVC
    </text>
    <rect x="200" y="15" height="30" width="160" fill="#ffffa0"></rect>
    <line x1="200" y1="15" x2="360" y2="15" stroke="#000000" stroke-width="1"/>
    <line x1="200" y1="45" x2="360" y2="45" stroke="#000000" stroke-width="1"/>
    <line x1="360" y1="15" x2="360" y2="45" stroke="#000000" stroke-width="1"/>
    <line x1="200" y1="15" x2="200" y2="45" stroke="#000000" stroke-width="1"/>
    <text font-size="18" font-family="Palatino, Georgia, Times New Roman, serif"
          font-style="italic" x="280" y="31" text-anchor="middle"
          dominant-baseline="middle">len_header
    </text>
    <rect x="360" y="15" height="30" width="160" fill="#ffffa0"></rect>
    <line x1="360" y1="15" x2="520" y2="15" stroke="#000000" stroke-width="1"/>
    <line x1="360" y1="45" x2="520" y2="45" stroke="#000000" stroke-width="1"/>
    <line x1="520" y1="15" x2="520" y2="45" stroke="#000000" stroke-width="1"/>
    <line x1="360" y1="15" x2="360" y2="45" stroke="#000000" stroke-width="1"/>
    <text font-size="18" font-family="Palatino, Georgia, Times New Roman, serif"
          font-style="italic" x="440" y="31" text-anchor="middle"
          dominant-baseline="middle">len_tag
    </text>
    <rect x="520" y="15" height="30" width="80" fill="#ffffa0"></rect>
    <line x1="520" y1="15" x2="680" y2="15" stroke="#000000" stroke-width="1"/>
    <line x1="520" y1="45" x2="600" y2="45" stroke="#000000" stroke-width="1"/>
    <line x1="600" y1="15" x2="600" y2="45" stroke="#000000" stroke-width="1"/>
    <line x1="680" y1="15" x2="680" y2="45" stroke="#000000" stroke-width="1"/>
    <line x1="520" y1="15" x2="520" y2="45" stroke="#000000" stroke-width="1"/>
    <text font-size="18" font-family="Palatino, Georgia, Times New Roman, serif"
          font-style="italic" x="560" y="31" text-anchor="middle"
          dominant-baseline="middle">unk
    </text>
    <text font-size="11" font-family="Courier New, monospace" font-style="normal"
          dominant-baseline="middle" x="35" y="30" text-anchor="end">00
    </text>
    <text font-size="11" font-family="Courier New, monospace" font-style="normal"
          dominant-baseline="middle" x="35" y="60" text-anchor="end">10
    </text>

    <line x1="40" y1="45" x2="200" y2="45" stroke="#000000" stroke-width="1"/>
    <line x1="40" y1="45" x2="40" y2="75" stroke="#000000" stroke-width="1"/>

    <line x1="200" y1="45" x2="600" y2="45" stroke="#000000" stroke-width="1"/>
    <line x1="680" y1="45" x2="680" y2="75" stroke="#000000" stroke-width="1"/>
    <text font-size="18" font-family="Palatino, Georgia, Times New Roman, serif"
          font-style="italic" x="360" y="61" text-anchor="middle"
          dominant-baseline="middle">entries
    </text>
    <text font-size="11" font-family="Courier New, monospace" font-style="normal"
          dominant-baseline="middle" x="35" y="90" text-anchor="end">20
    </text>
    <line x1="40" y1="75" x2="40" y2="90" stroke="#000000" stroke-width="1"/>
    <line x1="680" y1="75" x2="680" y2="90" stroke="#000000" stroke-width="1"/>
    <line stroke-dasharray="1,1" x1="40" y1="90" x2="680" y2="120" stroke="#000000"
          stroke-width="1"/>
    <line x1="680" y1="75" x2="680" y2="120" stroke="#000000" stroke-width="1"/>
    <line stroke-dasharray="1,1" x1="40" y1="100" x2="680" y2="130" stroke="#000000"
          stroke-width="1"/>
    <line x1="40" y1="100" x2="40" y2="130" stroke="#000000" stroke-width="1"/>
    <line x1="40" y1="130" x2="40" y2="145" stroke="#000000" stroke-width="1"/>
    <line x1="680" y1="130" x2="680" y2="145" stroke="#000000" stroke-width="1"/>
    <text font-size="11" font-family="Palatino, Georgia, Times New Roman, serif"
          font-style="italic" dominant-baseline="middle" x="35" y="160"
          text-anchor="end">i+
        <tspan font-size="11" font-family="Courier New, monospace" font-style="normal"
               dominant-baseline="middle">00
        </tspan>
    </text>
    <line x1="40" y1="145" x2="680" y2="145" stroke="#000000" stroke-width="1"/>
</svg>
